<?xml version="1.0" encoding="utf-8"?>
<!-- Generator: Adobe Illustrator 19.1.0, SVG Export Plug-In . SVG Version: 6.00 Build 0)  -->
<svg version="1.1" id="Camada_1" xmlns="http://www.w3.org/2000/svg" xmlns:xlink="http://www.w3.org/1999/xlink" x="0px" y="0px"
	 viewBox="0 0 150 150" enable-background="new 0 0 150 150" xml:space="preserve">
<g opacity="0.4">
	<ellipse fill="#424243" cx="73.95169" cy="93.25143" rx="40" ry="11.2813"/>
</g>
<g>
	<g>
		<path fill="#E6BD46" d="M109.93407,75.35202c1.0957-1.6113,1.9883-2.502-0.85738-4.40379
			c-7.42192-5.1323-10.75392-13.2017-10.92972-18.728c-0.0898-2.8194-0.4687-3.7959-1.0234-4.4629c0,0-0.16988-0.2056-0.2617-0.2866
			c-0.0079-0.0103-0.0215-0.0206-0.0313-0.0308c-0.0098-0.0103-0.0195-0.0205-0.0293-0.0303
			c-0.084-0.0937-0.28709-0.2627-0.28709-0.2627c-0.668-0.5532-1.64449-0.9336-4.46291-1.0229
			c-5.5273-0.1753-13.5957-3.5088-18.7305-10.9292c-1.9003-2.8457-2.7929-1.9531-4.4023-0.8584
			c-1.293,0.8784-13.3574,10.6567-19.17378,23.626c-3.295,7.3408-3.70712,15.7622-2.68562,24.4643
			c0.334,2.84129,1.7637,9.794,3.377,11.4072c1.6152,1.6148,8.5664,3.0425,11.4082,3.378c8.7031,1.021,17.123,0.6059,24.4648-2.6846
			C99.27787,88.70992,109.05328,76.64552,109.93407,75.35202z"/>
		<path opacity="0.5" fill="#E6BD46" d="M61.84427,97.21192c8.7031,1.021,17.123,0.6059,24.4648-2.6846
			c12.9688-5.8174,22.7442-17.8818,23.625-19.1753c1.0957-1.6113,1.9883-2.502-0.85738-4.40379
			c-7.42192-5.1323-10.75392-13.2017-10.92972-18.728c-0.0898-2.8194-0.4687-3.7959-1.0234-4.4629c0,0-0.16988-0.2056-0.2617-0.2866
			c-0.0079-0.0103-0.0215-0.0206-0.0313-0.0308l-46.3945,46.394C52.05127,95.44872,59.00248,96.87643,61.84427,97.21192z"/>
		<path fill="#C38737" d="M62.89898,39.71042c-0.2207,0.2114-0.44728,0.4331-0.6778,0.6567
			c-4.1543,4.2535-9.2656,10.4395-12.47648,17.5953c-3.295,7.3408-3.70712,15.7622-2.68562,24.4643
			c0.334,2.84129,1.7637,9.794,3.377,11.4072c1.6152,1.6148,8.5664,3.0425,11.4082,3.378c8.7031,1.021,17.123,0.6059,24.4648-2.6846
			c7.1582-3.2119,13.3399-8.3237,17.5938-12.4771c0.2246-0.2299,0.4472-0.4575,0.6582-0.6772
			c-4.2266,4.0376-10.1621,8.8276-16.98438,11.8853c-7.34182,3.2924-15.76372,3.7055-24.46482,2.685
			c-2.8418-0.3315-9.795-1.7617-11.41018-3.3769c-1.61132-1.6128-3.043-8.5655-3.375-11.40919
			c-1.02151-8.70171-0.60742-17.1211,2.68548-24.4644C54.07077,49.87252,58.85798,43.93502,62.89898,39.71042z"/>
		<path fill="#906532" d="M102.86969,74.43452c0.88278-1.2978,1.60149-2.0137-0.69141-3.5473
			c-5.97659-4.1333-8.6602-10.6324-8.8008-15.083c-0.0742-2.272-0.3789-3.0572-0.8242-3.5943c0,0-0.1368-0.1645-0.21101-0.2319
			c-0.0078-0.0083-0.01758-0.0161-0.0254-0.0244c-0.0078-0.0083-0.0156-0.0161-0.0214-0.0244
			c-0.0704-0.0752-0.2325-0.2115-0.2325-0.2115c-0.541-0.4458-1.3261-0.7505-3.5937-0.8237
			c-4.4531-0.1406-10.9512-2.8257-15.08601-8.8018c-1.5312-2.2924-2.24799-1.5742-3.5468-0.6914
			c-1.041,0.7075-10.75778,8.5816-15.4434,19.0288c-2.6523,5.91311-2.9863,12.6929-2.1621,19.7022
			c0.2676,2.2886,1.4199,7.8906,2.71872,9.18851c1.30078,1.2998,6.90038,2.4506,9.18948,2.71919
			c7.0078,0.8242,13.7891,0.4902,19.70309-2.16209C94.28757,85.19283,102.16257,75.47803,102.86969,74.43452z"/>
		<path fill="#DDE1E8" d="M99.48687,73.99512c0.7793-1.147,1.414-1.7818-0.6114-3.1368c-5.2851-3.6552-7.6601-9.4013-7.7851-13.3374
			c-0.0625-2.0078-0.334-2.7011-0.7285-3.1792c0,0-0.11918-0.1445-0.1856-0.2036c-0.0058-0.0058-0.01558-0.0141-0.0234-0.0224
			c-0.0059-0.0059-0.01369-0.0142-0.01759-0.02c-0.06059-0.0674-0.207-0.1875-0.207-0.1875
			c-0.47459-0.3946-1.17001-0.6651-3.1778-0.7281c-3.9355-0.124-9.6836-2.498-13.3379-7.7822
			c-1.3554-2.0283-1.9902-1.3936-3.1367-0.6123c-0.9219,0.6265-9.5117,7.5889-13.6543,16.8237
			c-2.3457,5.23-2.6406,11.2266-1.9121,17.4243c0.2363,2.024,1.2539,6.9751,2.4043,8.1241
			c1.1484,1.1494,6.0996,2.1665,8.1231,2.4043c6.1992,0.7285,12.1953,0.43359,17.42181-1.9121
			C91.89697,83.50682,98.85987,74.91653,99.48687,73.99512z"/>
		<path opacity="0.5" fill="#A9ADB8" d="M65.23688,89.56203c6.1992,0.7285,12.1953,0.43359,17.42181-1.9121
			c9.23828-4.1431,16.20118-12.7334,16.82818-13.6548c0.7793-1.147,1.414-1.7818-0.6114-3.1368
			c-5.2851-3.6552-7.6601-9.4013-7.7851-13.3374c-0.0625-2.0078-0.334-2.7011-0.7285-3.1792c0,0-0.11918-0.1445-0.1856-0.2036
			c-0.0058-0.0058-0.01558-0.0141-0.0234-0.0224l-33.0391,33.042C58.26217,88.30712,63.21338,89.32423,65.23688,89.56203z"/>
		<path opacity="0.5" fill="#A9ADB8" d="M67.65287,35.60352c1.60741-1.0943,2.5019-1.9873,4.40041,0.8584
			c5.1347,7.4204,13.20309,10.7563,18.73042,10.9292c2.81838,0.0893,3.793,0.4697,4.46288,1.0234c0,0,0.20312,0.1704,0.28712,0.2622
			c0.00978,0.0103,0.01958,0.0205,0.02738,0.0303c0.01362,0.0102,0.0254,0.0205,0.0332,0.0307
			c0.0918,0.0835,0.2617,0.2867,0.2617,0.2867c0.55472,0.6694,0.9336,1.6435,1.0234,4.4629
			c0.1739,5.5268,3.5078,13.5961,10.9297,18.728c2.8457,1.9018,1.95309,2.793,0.8594,4.4038
			c-0.34178,0.5044-2.0293,2.6343-4.7285,5.3926c3.4336-3.3565,5.6015-6.0821,5.9941-6.65971
			c1.0957-1.6113,1.9883-2.502-0.85738-4.40379c-7.42192-5.1323-10.75392-13.2017-10.92972-18.728
			c-0.0898-2.8194-0.4687-3.7959-1.0234-4.4629c0,0-0.16988-0.2056-0.2617-0.2866c-0.0079-0.0103-0.0215-0.0206-0.0313-0.0308
			c-0.0098-0.0103-0.0195-0.0205-0.0293-0.0303c-0.084-0.0937-0.28709-0.2627-0.28709-0.2627
			c-0.668-0.5532-1.64449-0.9336-4.46291-1.0229c-5.5273-0.1753-13.5957-3.5088-18.7305-10.9292
			c-1.9003-2.8457-2.7929-1.9531-4.4023-0.8584c-0.5762,0.3926-3.3027,2.5605-6.6602,5.9922
			C65.01807,37.63372,67.14697,35.94532,67.65287,35.60352z"/>
	</g>
	<g>
		<path fill="#424243" d="M81.21928,57.06733c0.8633-0.5127,5.7207,4.0542,5.51949,5.1729
			c-0.20308,1.1225-19.66208,22.1064-20.99799,21.8056c-1.33791-0.3032-5.3907-3.6674-5.0879-5.08929
			C60.95369,77.53462,79.45169,58.11712,81.21928,57.06733z"/>
		<path fill="#424243" d="M88.47118,71.88372c0.5118,0.8643-4.0547,5.7198-5.17381,5.5186
			c-1.1211-0.1992-16.7812-14.8447-16.4785-16.1812c0.3027-1.3364,3.6641-5.3886,5.08791-5.0874
			C73.32869,56.43452,87.42047,70.11623,88.47118,71.88372z"/>
	</g>
</g>
</svg>
